M48
;DRILL file {KiCad 4.0.6} date 08/05/17 13:51:16
;FORMAT={3:3/ absolute / metric / suppress leading zeros}
FMAT,2
METRIC,TZ
T1C0.400
T2C1.000
T3C1.100
%
G90
G05
M71
T1
X27305Y-176530
X27305Y-177800
X29210Y-197485
X31115Y-180340
X31115Y-187960
X31115Y-190500
X31750Y-177800
T2
X15240Y-193040
X15240Y-195580
X17780Y-193040
X17780Y-195580
X20320Y-193040
X20320Y-195580
X22860Y-193040
X22860Y-195580
X33655Y-180340
X33655Y-182880
X33655Y-185420
X33655Y-187960
X33655Y-190500
X33655Y-193040
X33655Y-195580
T3
X29790Y-168275
X29790Y-174775
X34290Y-168275
X34290Y-174775
T0
M30
