G04 #@! TF.FileFunction,Copper,L1,Top,Signal*
%FSLAX46Y46*%
G04 Gerber Fmt 4.6, Leading zero omitted, Abs format (unit mm)*
G04 Created by KiCad (PCBNEW 4.0.6) date 08/05/17 14:41:28*
%MOMM*%
%LPD*%
G01*
G04 APERTURE LIST*
%ADD10C,0.100000*%
%ADD11R,1.700000X1.700000*%
%ADD12O,1.700000X1.700000*%
%ADD13R,1.800000X1.600000*%
%ADD14R,0.800000X0.750000*%
%ADD15R,1.220000X0.650000*%
%ADD16R,0.500000X0.900000*%
%ADD17R,0.900000X0.500000*%
%ADD18C,2.000000*%
%ADD19C,0.600000*%
%ADD20C,0.250000*%
G04 APERTURE END LIST*
D10*
D11*
X33655000Y-195580000D03*
D12*
X33655000Y-193040000D03*
X33655000Y-190500000D03*
X33655000Y-187960000D03*
X33655000Y-185420000D03*
X33655000Y-182880000D03*
X33655000Y-180340000D03*
D13*
X29210000Y-183010000D03*
X29210000Y-180210000D03*
D14*
X27825000Y-190500000D03*
X29325000Y-190500000D03*
D11*
X15240000Y-195580000D03*
D12*
X15240000Y-193040000D03*
X17780000Y-195580000D03*
X17780000Y-193040000D03*
X20320000Y-195580000D03*
X20320000Y-193040000D03*
X22860000Y-195580000D03*
X22860000Y-193040000D03*
D15*
X29885000Y-188910000D03*
X29885000Y-187960000D03*
X29885000Y-187010000D03*
X27265000Y-187010000D03*
X27265000Y-188910000D03*
D16*
X28460000Y-177800000D03*
X29960000Y-177800000D03*
D17*
X27940000Y-193560000D03*
X27940000Y-195060000D03*
X29210000Y-193560000D03*
X29210000Y-195060000D03*
D18*
X29790000Y-168275000D03*
X34290000Y-168275000D03*
X29790000Y-174775000D03*
X34290000Y-174775000D03*
D19*
X31115000Y-180340000D03*
X31115000Y-190500000D03*
X31115000Y-187960000D03*
X27305000Y-177800000D03*
X31750000Y-177800000D03*
X29210000Y-197485000D03*
X27305000Y-176530000D03*
D20*
X31750000Y-189865000D02*
X32385000Y-190500000D01*
X32385000Y-190500000D02*
X33655000Y-190500000D01*
X33655000Y-190500000D02*
X33655000Y-193040000D01*
X29210000Y-183010000D02*
X30610000Y-183010000D01*
X31750000Y-184150000D02*
X31750000Y-189865000D01*
X30610000Y-183010000D02*
X31750000Y-184150000D01*
X29885000Y-188910000D02*
X30795000Y-188910000D01*
X30795000Y-188910000D02*
X31750000Y-189865000D01*
X29325000Y-190500000D02*
X31115000Y-190500000D01*
X31115000Y-187960000D02*
X29885000Y-187960000D01*
X31115000Y-180340000D02*
X29340000Y-180340000D01*
X29340000Y-180340000D02*
X29210000Y-180210000D01*
X31750000Y-182880000D02*
X33655000Y-182880000D01*
X31750000Y-182880000D02*
X31750000Y-177800000D01*
X28460000Y-177800000D02*
X27305000Y-177800000D01*
X27305000Y-177800000D02*
X27305000Y-185420000D01*
X22860000Y-195580000D02*
X25400000Y-195580000D01*
X25515000Y-193560000D02*
X27940000Y-193560000D01*
X25400000Y-193675000D02*
X25515000Y-193560000D01*
X25400000Y-195580000D02*
X25400000Y-193675000D01*
X25715000Y-188910000D02*
X27265000Y-188910000D01*
X25400000Y-188595000D02*
X25715000Y-188910000D01*
X25400000Y-185420000D02*
X25400000Y-188595000D01*
X27305000Y-185420000D02*
X25400000Y-185420000D01*
X27825000Y-190500000D02*
X27825000Y-189750000D01*
X27825000Y-189750000D02*
X27265000Y-189190000D01*
X27265000Y-189190000D02*
X27265000Y-188910000D01*
X27940000Y-193560000D02*
X27940000Y-190615000D01*
X27940000Y-190615000D02*
X27825000Y-190500000D01*
X27940000Y-193560000D02*
X29210000Y-193560000D01*
X29210000Y-197485000D02*
X29210000Y-195060000D01*
X20320000Y-195580000D02*
X20320000Y-196215000D01*
X20320000Y-196215000D02*
X21590000Y-197485000D01*
X21590000Y-197485000D02*
X27940000Y-197485000D01*
X27940000Y-197485000D02*
X27940000Y-195060000D01*
X26670000Y-175895000D02*
X29210000Y-175895000D01*
X29210000Y-175895000D02*
X29790000Y-175315000D01*
X29790000Y-175315000D02*
X29790000Y-174775000D01*
X29790000Y-174775000D02*
X29790000Y-168275000D01*
X17780000Y-193040000D02*
X17780000Y-189865000D01*
X26035000Y-176530000D02*
X26670000Y-175895000D01*
X26035000Y-182245000D02*
X26035000Y-176530000D01*
X25400000Y-182880000D02*
X26035000Y-182245000D01*
X24130000Y-184150000D02*
X25400000Y-182880000D01*
X24130000Y-189865000D02*
X24130000Y-184150000D01*
X17780000Y-189865000D02*
X24130000Y-189865000D01*
X34290000Y-174775000D02*
X34290000Y-168275000D01*
X29960000Y-177800000D02*
X29960000Y-177685000D01*
X29960000Y-177685000D02*
X32870000Y-174775000D01*
X32870000Y-174775000D02*
X34290000Y-174775000D01*
X20320000Y-190500000D02*
X20320000Y-193040000D01*
X26670000Y-177165000D02*
X27305000Y-176530000D01*
X26670000Y-184150000D02*
X26670000Y-177165000D01*
X25400000Y-184150000D02*
X26670000Y-184150000D01*
X24765000Y-184785000D02*
X25400000Y-184150000D01*
X24765000Y-190500000D02*
X24765000Y-184785000D01*
X20320000Y-190500000D02*
X24765000Y-190500000D01*
M02*
