G04 #@! TF.FileFunction,Other,User*
%FSLAX46Y46*%
G04 Gerber Fmt 4.6, Leading zero omitted, Abs format (unit mm)*
G04 Created by KiCad (PCBNEW 4.0.6) date 08/05/17 14:41:28*
%MOMM*%
%LPD*%
G01*
G04 APERTURE LIST*
%ADD10C,0.100000*%
%ADD11C,0.050000*%
G04 APERTURE END LIST*
D10*
D11*
X35455000Y-197380000D02*
X35455000Y-178530000D01*
X35455000Y-178530000D02*
X31855000Y-178530000D01*
X31855000Y-178530000D02*
X31855000Y-197380000D01*
X31855000Y-197380000D02*
X35455000Y-197380000D01*
X27940000Y-184150000D02*
X27940000Y-179070000D01*
X27940000Y-179070000D02*
X30480000Y-179070000D01*
X30480000Y-179070000D02*
X30480000Y-184150000D01*
X30480000Y-184150000D02*
X27940000Y-184150000D01*
X27175000Y-189850000D02*
X29975000Y-189850000D01*
X27175000Y-189850000D02*
X27175000Y-191150000D01*
X29975000Y-191150000D02*
X29975000Y-189850000D01*
X29975000Y-191150000D02*
X27175000Y-191150000D01*
X13440000Y-197380000D02*
X24640000Y-197380000D01*
X24640000Y-197380000D02*
X24640000Y-191230000D01*
X24640000Y-191230000D02*
X13440000Y-191230000D01*
X13440000Y-191230000D02*
X13440000Y-197380000D01*
X30745000Y-189660000D02*
X26405000Y-189660000D01*
X30745000Y-189660000D02*
X30745000Y-186260000D01*
X26405000Y-186260000D02*
X26405000Y-189660000D01*
X26405000Y-186260000D02*
X30745000Y-186260000D01*
X27960000Y-177100000D02*
X30460000Y-177100000D01*
X27960000Y-177100000D02*
X27960000Y-178500000D01*
X30460000Y-178500000D02*
X30460000Y-177100000D01*
X30460000Y-178500000D02*
X27960000Y-178500000D01*
X28640000Y-193060000D02*
X28640000Y-195560000D01*
X28640000Y-193060000D02*
X27240000Y-193060000D01*
X27240000Y-195560000D02*
X28640000Y-195560000D01*
X27240000Y-195560000D02*
X27240000Y-193060000D01*
X29910000Y-193060000D02*
X29910000Y-195560000D01*
X29910000Y-193060000D02*
X28510000Y-193060000D01*
X28510000Y-195560000D02*
X29910000Y-195560000D01*
X28510000Y-195560000D02*
X28510000Y-193060000D01*
X28290000Y-176025000D02*
X28290000Y-176275000D01*
X28290000Y-176275000D02*
X28540000Y-176275000D01*
X35790000Y-176025000D02*
X35790000Y-176275000D01*
X35790000Y-176275000D02*
X35540000Y-176275000D01*
X35540000Y-166775000D02*
X35790000Y-166775000D01*
X35790000Y-166775000D02*
X35790000Y-167025000D01*
X28540000Y-166775000D02*
X28290000Y-166775000D01*
X28290000Y-166775000D02*
X28290000Y-167025000D01*
X35790000Y-167025000D02*
X35790000Y-176025000D01*
X28540000Y-166775000D02*
X35540000Y-166775000D01*
X28290000Y-176025000D02*
X28290000Y-167025000D01*
X35540000Y-176275000D02*
X28540000Y-176275000D01*
M02*
