G04 #@! TF.FileFunction,Legend,Top*
%FSLAX46Y46*%
G04 Gerber Fmt 4.6, Leading zero omitted, Abs format (unit mm)*
G04 Created by KiCad (PCBNEW 4.0.6) date 08/05/17 14:41:28*
%MOMM*%
%LPD*%
G01*
G04 APERTURE LIST*
%ADD10C,0.100000*%
%ADD11C,0.200000*%
%ADD12C,0.150000*%
%ADD13C,0.120000*%
%ADD14C,0.180000*%
G04 APERTURE END LIST*
D10*
D11*
X27940000Y-175260000D02*
X12700000Y-175260000D01*
X27940000Y-165100000D02*
X27940000Y-175260000D01*
X12700000Y-165100000D02*
X27940000Y-165100000D01*
X12700000Y-175260000D02*
X12700000Y-165100000D01*
D12*
X18477144Y-170280000D02*
X18762858Y-170280000D01*
X18420001Y-170451429D02*
X18620001Y-169851429D01*
X18820001Y-170451429D01*
X19020001Y-170451429D02*
X19020001Y-169851429D01*
X19362858Y-170451429D01*
X19362858Y-169851429D01*
X19562858Y-169851429D02*
X19905715Y-169851429D01*
X19734286Y-170451429D02*
X19734286Y-169851429D01*
X20105715Y-170137143D02*
X20305715Y-170137143D01*
X20391429Y-170451429D02*
X20105715Y-170451429D01*
X20105715Y-169851429D01*
X20391429Y-169851429D01*
X20648572Y-170451429D02*
X20648572Y-169851429D01*
X20991429Y-170451429D01*
X20991429Y-169851429D01*
X21277143Y-170451429D02*
X21277143Y-169851429D01*
X21620000Y-170451429D01*
X21620000Y-169851429D01*
X21877143Y-170280000D02*
X22162857Y-170280000D01*
X21820000Y-170451429D02*
X22020000Y-169851429D01*
X22220000Y-170451429D01*
X35295000Y-188231429D02*
X35295000Y-187631429D01*
X35437857Y-187631429D01*
X35523572Y-187660000D01*
X35580714Y-187717143D01*
X35609286Y-187774286D01*
X35637857Y-187888571D01*
X35637857Y-187974286D01*
X35609286Y-188088571D01*
X35580714Y-188145714D01*
X35523572Y-188202857D01*
X35437857Y-188231429D01*
X35295000Y-188231429D01*
X35866429Y-188060000D02*
X36152143Y-188060000D01*
X35809286Y-188231429D02*
X36009286Y-187631429D01*
X36209286Y-188231429D01*
X36323572Y-187631429D02*
X36666429Y-187631429D01*
X36495000Y-188231429D02*
X36495000Y-187631429D01*
X36837858Y-188060000D02*
X37123572Y-188060000D01*
X36780715Y-188231429D02*
X36980715Y-187631429D01*
X37180715Y-188231429D01*
X35737857Y-182551429D02*
X36109286Y-182551429D01*
X35909286Y-182780000D01*
X35995000Y-182780000D01*
X36052143Y-182808571D01*
X36080714Y-182837143D01*
X36109286Y-182894286D01*
X36109286Y-183037143D01*
X36080714Y-183094286D01*
X36052143Y-183122857D01*
X35995000Y-183151429D01*
X35823572Y-183151429D01*
X35766429Y-183122857D01*
X35737857Y-183094286D01*
X36280715Y-182551429D02*
X36480715Y-183151429D01*
X36680715Y-182551429D01*
X35737858Y-180040000D02*
X35680715Y-180011429D01*
X35595001Y-180011429D01*
X35509286Y-180040000D01*
X35452144Y-180097143D01*
X35423572Y-180154286D01*
X35395001Y-180268571D01*
X35395001Y-180354286D01*
X35423572Y-180468571D01*
X35452144Y-180525714D01*
X35509286Y-180582857D01*
X35595001Y-180611429D01*
X35652144Y-180611429D01*
X35737858Y-180582857D01*
X35766429Y-180554286D01*
X35766429Y-180354286D01*
X35652144Y-180354286D01*
X36023572Y-180611429D02*
X36023572Y-180011429D01*
X36366429Y-180611429D01*
X36366429Y-180011429D01*
X36652143Y-180611429D02*
X36652143Y-180011429D01*
X36795000Y-180011429D01*
X36880715Y-180040000D01*
X36937857Y-180097143D01*
X36966429Y-180154286D01*
X36995000Y-180268571D01*
X36995000Y-180354286D01*
X36966429Y-180468571D01*
X36937857Y-180525714D01*
X36880715Y-180582857D01*
X36795000Y-180611429D01*
X36652143Y-180611429D01*
X35737858Y-185120000D02*
X35680715Y-185091429D01*
X35595001Y-185091429D01*
X35509286Y-185120000D01*
X35452144Y-185177143D01*
X35423572Y-185234286D01*
X35395001Y-185348571D01*
X35395001Y-185434286D01*
X35423572Y-185548571D01*
X35452144Y-185605714D01*
X35509286Y-185662857D01*
X35595001Y-185691429D01*
X35652144Y-185691429D01*
X35737858Y-185662857D01*
X35766429Y-185634286D01*
X35766429Y-185434286D01*
X35652144Y-185434286D01*
X36023572Y-185691429D02*
X36023572Y-185091429D01*
X36366429Y-185691429D01*
X36366429Y-185091429D01*
X36652143Y-185691429D02*
X36652143Y-185091429D01*
X36795000Y-185091429D01*
X36880715Y-185120000D01*
X36937857Y-185177143D01*
X36966429Y-185234286D01*
X36995000Y-185348571D01*
X36995000Y-185434286D01*
X36966429Y-185548571D01*
X36937857Y-185605714D01*
X36880715Y-185662857D01*
X36795000Y-185691429D01*
X36652143Y-185691429D01*
X35395000Y-192711429D02*
X35595000Y-193311429D01*
X35795000Y-192711429D01*
X36337857Y-193254286D02*
X36309286Y-193282857D01*
X36223572Y-193311429D01*
X36166429Y-193311429D01*
X36080714Y-193282857D01*
X36023572Y-193225714D01*
X35995000Y-193168571D01*
X35966429Y-193054286D01*
X35966429Y-192968571D01*
X35995000Y-192854286D01*
X36023572Y-192797143D01*
X36080714Y-192740000D01*
X36166429Y-192711429D01*
X36223572Y-192711429D01*
X36309286Y-192740000D01*
X36337857Y-192768571D01*
X36937857Y-193254286D02*
X36909286Y-193282857D01*
X36823572Y-193311429D01*
X36766429Y-193311429D01*
X36680714Y-193282857D01*
X36623572Y-193225714D01*
X36595000Y-193168571D01*
X36566429Y-193054286D01*
X36566429Y-192968571D01*
X36595000Y-192854286D01*
X36623572Y-192797143D01*
X36680714Y-192740000D01*
X36766429Y-192711429D01*
X36823572Y-192711429D01*
X36909286Y-192740000D01*
X36937857Y-192768571D01*
X36080714Y-190171429D02*
X35795000Y-190171429D01*
X35766429Y-190457143D01*
X35795000Y-190428571D01*
X35852143Y-190400000D01*
X35995000Y-190400000D01*
X36052143Y-190428571D01*
X36080714Y-190457143D01*
X36109286Y-190514286D01*
X36109286Y-190657143D01*
X36080714Y-190714286D01*
X36052143Y-190742857D01*
X35995000Y-190771429D01*
X35852143Y-190771429D01*
X35795000Y-190742857D01*
X35766429Y-190714286D01*
X36280715Y-190171429D02*
X36480715Y-190771429D01*
X36680715Y-190171429D01*
X35737858Y-195280000D02*
X35680715Y-195251429D01*
X35595001Y-195251429D01*
X35509286Y-195280000D01*
X35452144Y-195337143D01*
X35423572Y-195394286D01*
X35395001Y-195508571D01*
X35395001Y-195594286D01*
X35423572Y-195708571D01*
X35452144Y-195765714D01*
X35509286Y-195822857D01*
X35595001Y-195851429D01*
X35652144Y-195851429D01*
X35737858Y-195822857D01*
X35766429Y-195794286D01*
X35766429Y-195594286D01*
X35652144Y-195594286D01*
X36023572Y-195851429D02*
X36023572Y-195251429D01*
X36366429Y-195851429D01*
X36366429Y-195251429D01*
X36652143Y-195851429D02*
X36652143Y-195251429D01*
X36795000Y-195251429D01*
X36880715Y-195280000D01*
X36937857Y-195337143D01*
X36966429Y-195394286D01*
X36995000Y-195508571D01*
X36995000Y-195594286D01*
X36966429Y-195708571D01*
X36937857Y-195765714D01*
X36880715Y-195822857D01*
X36795000Y-195851429D01*
X36652143Y-195851429D01*
X23037858Y-197185000D02*
X22980715Y-197156429D01*
X22895001Y-197156429D01*
X22809286Y-197185000D01*
X22752144Y-197242143D01*
X22723572Y-197299286D01*
X22695001Y-197413571D01*
X22695001Y-197499286D01*
X22723572Y-197613571D01*
X22752144Y-197670714D01*
X22809286Y-197727857D01*
X22895001Y-197756429D01*
X22952144Y-197756429D01*
X23037858Y-197727857D01*
X23066429Y-197699286D01*
X23066429Y-197499286D01*
X22952144Y-197499286D01*
X23323572Y-197756429D02*
X23323572Y-197156429D01*
X23666429Y-197756429D01*
X23666429Y-197156429D01*
X23952143Y-197756429D02*
X23952143Y-197156429D01*
X24095000Y-197156429D01*
X24180715Y-197185000D01*
X24237857Y-197242143D01*
X24266429Y-197299286D01*
X24295000Y-197413571D01*
X24295000Y-197499286D01*
X24266429Y-197613571D01*
X24237857Y-197670714D01*
X24180715Y-197727857D01*
X24095000Y-197756429D01*
X23952143Y-197756429D01*
X13805000Y-190806429D02*
X14005000Y-191406429D01*
X14205000Y-190806429D01*
X14747857Y-191349286D02*
X14719286Y-191377857D01*
X14633572Y-191406429D01*
X14576429Y-191406429D01*
X14490714Y-191377857D01*
X14433572Y-191320714D01*
X14405000Y-191263571D01*
X14376429Y-191149286D01*
X14376429Y-191063571D01*
X14405000Y-190949286D01*
X14433572Y-190892143D01*
X14490714Y-190835000D01*
X14576429Y-190806429D01*
X14633572Y-190806429D01*
X14719286Y-190835000D01*
X14747857Y-190863571D01*
X15347857Y-191349286D02*
X15319286Y-191377857D01*
X15233572Y-191406429D01*
X15176429Y-191406429D01*
X15090714Y-191377857D01*
X15033572Y-191320714D01*
X15005000Y-191263571D01*
X14976429Y-191149286D01*
X14976429Y-191063571D01*
X15005000Y-190949286D01*
X15033572Y-190892143D01*
X15090714Y-190835000D01*
X15176429Y-190806429D01*
X15233572Y-190806429D01*
X15319286Y-190835000D01*
X15347857Y-190863571D01*
X26306429Y-189902858D02*
X25706429Y-189902858D01*
X26135000Y-189702858D01*
X25706429Y-189502858D01*
X26306429Y-189502858D01*
X26249286Y-188874287D02*
X26277857Y-188902858D01*
X26306429Y-188988572D01*
X26306429Y-189045715D01*
X26277857Y-189131430D01*
X26220714Y-189188572D01*
X26163571Y-189217144D01*
X26049286Y-189245715D01*
X25963571Y-189245715D01*
X25849286Y-189217144D01*
X25792143Y-189188572D01*
X25735000Y-189131430D01*
X25706429Y-189045715D01*
X25706429Y-188988572D01*
X25735000Y-188902858D01*
X25763571Y-188874287D01*
X26306429Y-188617144D02*
X25706429Y-188617144D01*
X25706429Y-188388572D01*
X25735000Y-188331430D01*
X25763571Y-188302858D01*
X25820714Y-188274287D01*
X25906429Y-188274287D01*
X25963571Y-188302858D01*
X25992143Y-188331430D01*
X26020714Y-188388572D01*
X26020714Y-188617144D01*
X26306429Y-187702858D02*
X26306429Y-188045715D01*
X26306429Y-187874287D02*
X25706429Y-187874287D01*
X25792143Y-187931430D01*
X25849286Y-187988572D01*
X25877857Y-188045715D01*
X25963571Y-187360001D02*
X25935000Y-187417143D01*
X25906429Y-187445715D01*
X25849286Y-187474286D01*
X25820714Y-187474286D01*
X25763571Y-187445715D01*
X25735000Y-187417143D01*
X25706429Y-187360001D01*
X25706429Y-187245715D01*
X25735000Y-187188572D01*
X25763571Y-187160001D01*
X25820714Y-187131429D01*
X25849286Y-187131429D01*
X25906429Y-187160001D01*
X25935000Y-187188572D01*
X25963571Y-187245715D01*
X25963571Y-187360001D01*
X25992143Y-187417143D01*
X26020714Y-187445715D01*
X26077857Y-187474286D01*
X26192143Y-187474286D01*
X26249286Y-187445715D01*
X26277857Y-187417143D01*
X26306429Y-187360001D01*
X26306429Y-187245715D01*
X26277857Y-187188572D01*
X26249286Y-187160001D01*
X26192143Y-187131429D01*
X26077857Y-187131429D01*
X26020714Y-187160001D01*
X25992143Y-187188572D01*
X25963571Y-187245715D01*
X25763571Y-186902857D02*
X25735000Y-186874286D01*
X25706429Y-186817143D01*
X25706429Y-186674286D01*
X25735000Y-186617143D01*
X25763571Y-186588572D01*
X25820714Y-186560000D01*
X25877857Y-186560000D01*
X25963571Y-186588572D01*
X26306429Y-186931429D01*
X26306429Y-186560000D01*
X25906429Y-186045714D02*
X26306429Y-186045714D01*
X25677857Y-186188571D02*
X26106429Y-186331428D01*
X26106429Y-185960000D01*
X31015000Y-178071429D02*
X30815000Y-177785714D01*
X30672143Y-178071429D02*
X30672143Y-177471429D01*
X30900715Y-177471429D01*
X30957857Y-177500000D01*
X30986429Y-177528571D01*
X31015000Y-177585714D01*
X31015000Y-177671429D01*
X30986429Y-177728571D01*
X30957857Y-177757143D01*
X30900715Y-177785714D01*
X30672143Y-177785714D01*
X31586429Y-178071429D02*
X31243572Y-178071429D01*
X31415000Y-178071429D02*
X31415000Y-177471429D01*
X31357857Y-177557143D01*
X31300715Y-177614286D01*
X31243572Y-177642857D01*
X27840000Y-196486429D02*
X27640000Y-196200714D01*
X27497143Y-196486429D02*
X27497143Y-195886429D01*
X27725715Y-195886429D01*
X27782857Y-195915000D01*
X27811429Y-195943571D01*
X27840000Y-196000714D01*
X27840000Y-196086429D01*
X27811429Y-196143571D01*
X27782857Y-196172143D01*
X27725715Y-196200714D01*
X27497143Y-196200714D01*
X28068572Y-195943571D02*
X28097143Y-195915000D01*
X28154286Y-195886429D01*
X28297143Y-195886429D01*
X28354286Y-195915000D01*
X28382857Y-195943571D01*
X28411429Y-196000714D01*
X28411429Y-196057857D01*
X28382857Y-196143571D01*
X28040000Y-196486429D01*
X28411429Y-196486429D01*
X29110000Y-196486429D02*
X28910000Y-196200714D01*
X28767143Y-196486429D02*
X28767143Y-195886429D01*
X28995715Y-195886429D01*
X29052857Y-195915000D01*
X29081429Y-195943571D01*
X29110000Y-196000714D01*
X29110000Y-196086429D01*
X29081429Y-196143571D01*
X29052857Y-196172143D01*
X28995715Y-196200714D01*
X28767143Y-196200714D01*
X29310000Y-195886429D02*
X29681429Y-195886429D01*
X29481429Y-196115000D01*
X29567143Y-196115000D01*
X29624286Y-196143571D01*
X29652857Y-196172143D01*
X29681429Y-196229286D01*
X29681429Y-196372143D01*
X29652857Y-196429286D01*
X29624286Y-196457857D01*
X29567143Y-196486429D01*
X29395715Y-196486429D01*
X29338572Y-196457857D01*
X29310000Y-196429286D01*
X28475000Y-191984286D02*
X28446429Y-192012857D01*
X28360715Y-192041429D01*
X28303572Y-192041429D01*
X28217857Y-192012857D01*
X28160715Y-191955714D01*
X28132143Y-191898571D01*
X28103572Y-191784286D01*
X28103572Y-191698571D01*
X28132143Y-191584286D01*
X28160715Y-191527143D01*
X28217857Y-191470000D01*
X28303572Y-191441429D01*
X28360715Y-191441429D01*
X28446429Y-191470000D01*
X28475000Y-191498571D01*
X28703572Y-191498571D02*
X28732143Y-191470000D01*
X28789286Y-191441429D01*
X28932143Y-191441429D01*
X28989286Y-191470000D01*
X29017857Y-191498571D01*
X29046429Y-191555714D01*
X29046429Y-191612857D01*
X29017857Y-191698571D01*
X28675000Y-192041429D01*
X29046429Y-192041429D01*
X29110000Y-185634286D02*
X29081429Y-185662857D01*
X28995715Y-185691429D01*
X28938572Y-185691429D01*
X28852857Y-185662857D01*
X28795715Y-185605714D01*
X28767143Y-185548571D01*
X28738572Y-185434286D01*
X28738572Y-185348571D01*
X28767143Y-185234286D01*
X28795715Y-185177143D01*
X28852857Y-185120000D01*
X28938572Y-185091429D01*
X28995715Y-185091429D01*
X29081429Y-185120000D01*
X29110000Y-185148571D01*
X29681429Y-185691429D02*
X29338572Y-185691429D01*
X29510000Y-185691429D02*
X29510000Y-185091429D01*
X29452857Y-185177143D01*
X29395715Y-185234286D01*
X29338572Y-185262857D01*
X32156429Y-170222857D02*
X32613572Y-170222857D01*
D13*
X34985000Y-179010000D02*
X32325000Y-179010000D01*
X34985000Y-194310000D02*
X34985000Y-179010000D01*
X32325000Y-194310000D02*
X32325000Y-179010000D01*
X34985000Y-194310000D02*
X32325000Y-194310000D01*
X34985000Y-195580000D02*
X34985000Y-196910000D01*
X34985000Y-196910000D02*
X33655000Y-196910000D01*
D14*
X30480000Y-184531000D02*
X30480000Y-179070000D01*
X30480000Y-179070000D02*
X27940000Y-179070000D01*
X27940000Y-179070000D02*
X27940000Y-184531000D01*
X27940000Y-184150000D02*
X30480000Y-184150000D01*
X27940000Y-184277000D02*
X30480000Y-184277000D01*
X27940000Y-184404000D02*
X30480000Y-184404000D01*
X27940000Y-184531000D02*
X30480000Y-184531000D01*
D13*
X28225000Y-189900000D02*
X28925000Y-189900000D01*
X28925000Y-191100000D02*
X28225000Y-191100000D01*
X24190000Y-196910000D02*
X24190000Y-191710000D01*
X16510000Y-196910000D02*
X24190000Y-196910000D01*
X13910000Y-191710000D02*
X24190000Y-191710000D01*
X16510000Y-196910000D02*
X16510000Y-194310000D01*
X16510000Y-194310000D02*
X13910000Y-194310000D01*
X13910000Y-194310000D02*
X13910000Y-191710000D01*
X15240000Y-196910000D02*
X13910000Y-196910000D01*
X13910000Y-196910000D02*
X13910000Y-195580000D01*
X29455000Y-186400000D02*
X27695000Y-186400000D01*
X27695000Y-189470000D02*
X30125000Y-189470000D01*
X29710000Y-178480000D02*
X28710000Y-178480000D01*
X28710000Y-177120000D02*
X29710000Y-177120000D01*
X27260000Y-194810000D02*
X27260000Y-193810000D01*
X28620000Y-193810000D02*
X28620000Y-194810000D01*
X28530000Y-194810000D02*
X28530000Y-193810000D01*
X29890000Y-193810000D02*
X29890000Y-194810000D01*
X28790000Y-169275000D02*
X28790000Y-173775000D01*
X32790000Y-168025000D02*
X31290000Y-168025000D01*
X35290000Y-173775000D02*
X35290000Y-169275000D01*
X31290000Y-175025000D02*
X32790000Y-175025000D01*
D12*
X33321667Y-197362381D02*
X33321667Y-198076667D01*
X33274047Y-198219524D01*
X33178809Y-198314762D01*
X33035952Y-198362381D01*
X32940714Y-198362381D01*
X34226429Y-197362381D02*
X34035952Y-197362381D01*
X33940714Y-197410000D01*
X33893095Y-197457619D01*
X33797857Y-197600476D01*
X33750238Y-197790952D01*
X33750238Y-198171905D01*
X33797857Y-198267143D01*
X33845476Y-198314762D01*
X33940714Y-198362381D01*
X34131191Y-198362381D01*
X34226429Y-198314762D01*
X34274048Y-198267143D01*
X34321667Y-198171905D01*
X34321667Y-197933810D01*
X34274048Y-197838571D01*
X34226429Y-197790952D01*
X34131191Y-197743333D01*
X33940714Y-197743333D01*
X33845476Y-197790952D01*
X33797857Y-197838571D01*
X33750238Y-197933810D01*
D14*
X27416143Y-183975476D02*
X27463762Y-184023095D01*
X27511381Y-184165952D01*
X27511381Y-184261190D01*
X27463762Y-184404048D01*
X27368524Y-184499286D01*
X27273286Y-184546905D01*
X27082810Y-184594524D01*
X26939952Y-184594524D01*
X26749476Y-184546905D01*
X26654238Y-184499286D01*
X26559000Y-184404048D01*
X26511381Y-184261190D01*
X26511381Y-184165952D01*
X26559000Y-184023095D01*
X26606619Y-183975476D01*
X27511381Y-183023095D02*
X27511381Y-183594524D01*
X27511381Y-183308810D02*
X26511381Y-183308810D01*
X26654238Y-183404048D01*
X26749476Y-183499286D01*
X26797095Y-183594524D01*
D12*
X28408334Y-189357143D02*
X28360715Y-189404762D01*
X28217858Y-189452381D01*
X28122620Y-189452381D01*
X27979762Y-189404762D01*
X27884524Y-189309524D01*
X27836905Y-189214286D01*
X27789286Y-189023810D01*
X27789286Y-188880952D01*
X27836905Y-188690476D01*
X27884524Y-188595238D01*
X27979762Y-188500000D01*
X28122620Y-188452381D01*
X28217858Y-188452381D01*
X28360715Y-188500000D01*
X28408334Y-188547619D01*
X28789286Y-188547619D02*
X28836905Y-188500000D01*
X28932143Y-188452381D01*
X29170239Y-188452381D01*
X29265477Y-188500000D01*
X29313096Y-188547619D01*
X29360715Y-188642857D01*
X29360715Y-188738095D01*
X29313096Y-188880952D01*
X28741667Y-189452381D01*
X29360715Y-189452381D01*
X12362381Y-194643333D02*
X13076667Y-194643333D01*
X13219524Y-194690953D01*
X13314762Y-194786191D01*
X13362381Y-194929048D01*
X13362381Y-195024286D01*
X12362381Y-193690952D02*
X12362381Y-194167143D01*
X12838571Y-194214762D01*
X12790952Y-194167143D01*
X12743333Y-194071905D01*
X12743333Y-193833809D01*
X12790952Y-193738571D01*
X12838571Y-193690952D01*
X12933810Y-193643333D01*
X13171905Y-193643333D01*
X13267143Y-193690952D01*
X13314762Y-193738571D01*
X13362381Y-193833809D01*
X13362381Y-194071905D01*
X13314762Y-194167143D01*
X13267143Y-194214762D01*
X27384524Y-190862381D02*
X26908333Y-190862381D01*
X26908333Y-189862381D01*
X27717857Y-190862381D02*
X27717857Y-189862381D01*
X27955952Y-189862381D01*
X28098810Y-189910000D01*
X28194048Y-190005238D01*
X28241667Y-190100476D01*
X28289286Y-190290952D01*
X28289286Y-190433810D01*
X28241667Y-190624286D01*
X28194048Y-190719524D01*
X28098810Y-190814762D01*
X27955952Y-190862381D01*
X27717857Y-190862381D01*
X28908333Y-189862381D02*
X29098810Y-189862381D01*
X29194048Y-189910000D01*
X29289286Y-190005238D01*
X29336905Y-190195714D01*
X29336905Y-190529048D01*
X29289286Y-190719524D01*
X29194048Y-190814762D01*
X29098810Y-190862381D01*
X28908333Y-190862381D01*
X28813095Y-190814762D01*
X28717857Y-190719524D01*
X28670238Y-190529048D01*
X28670238Y-190195714D01*
X28717857Y-190005238D01*
X28813095Y-189910000D01*
X28908333Y-189862381D01*
X30289286Y-190862381D02*
X29717857Y-190862381D01*
X30003571Y-190862381D02*
X30003571Y-189862381D01*
X29908333Y-190005238D01*
X29813095Y-190100476D01*
X29717857Y-190148095D01*
X29043334Y-176802381D02*
X28710000Y-176326190D01*
X28471905Y-176802381D02*
X28471905Y-175802381D01*
X28852858Y-175802381D01*
X28948096Y-175850000D01*
X28995715Y-175897619D01*
X29043334Y-175992857D01*
X29043334Y-176135714D01*
X28995715Y-176230952D01*
X28948096Y-176278571D01*
X28852858Y-176326190D01*
X28471905Y-176326190D01*
X29995715Y-176802381D02*
X29424286Y-176802381D01*
X29710000Y-176802381D02*
X29710000Y-175802381D01*
X29614762Y-175945238D01*
X29519524Y-176040476D01*
X29424286Y-176088095D01*
X29842381Y-194476666D02*
X29366190Y-194810000D01*
X29842381Y-195048095D02*
X28842381Y-195048095D01*
X28842381Y-194667142D01*
X28890000Y-194571904D01*
X28937619Y-194524285D01*
X29032857Y-194476666D01*
X29175714Y-194476666D01*
X29270952Y-194524285D01*
X29318571Y-194571904D01*
X29366190Y-194667142D01*
X29366190Y-195048095D01*
X28937619Y-194095714D02*
X28890000Y-194048095D01*
X28842381Y-193952857D01*
X28842381Y-193714761D01*
X28890000Y-193619523D01*
X28937619Y-193571904D01*
X29032857Y-193524285D01*
X29128095Y-193524285D01*
X29270952Y-193571904D01*
X29842381Y-194143333D01*
X29842381Y-193524285D01*
X31112381Y-194476666D02*
X30636190Y-194810000D01*
X31112381Y-195048095D02*
X30112381Y-195048095D01*
X30112381Y-194667142D01*
X30160000Y-194571904D01*
X30207619Y-194524285D01*
X30302857Y-194476666D01*
X30445714Y-194476666D01*
X30540952Y-194524285D01*
X30588571Y-194571904D01*
X30636190Y-194667142D01*
X30636190Y-195048095D01*
X30112381Y-194143333D02*
X30112381Y-193524285D01*
X30493333Y-193857619D01*
X30493333Y-193714761D01*
X30540952Y-193619523D01*
X30588571Y-193571904D01*
X30683810Y-193524285D01*
X30921905Y-193524285D01*
X31017143Y-193571904D01*
X31064762Y-193619523D01*
X31112381Y-193714761D01*
X31112381Y-194000476D01*
X31064762Y-194095714D01*
X31017143Y-194143333D01*
X36694762Y-172858333D02*
X36742381Y-172715476D01*
X36742381Y-172477380D01*
X36694762Y-172382142D01*
X36647143Y-172334523D01*
X36551905Y-172286904D01*
X36456667Y-172286904D01*
X36361429Y-172334523D01*
X36313810Y-172382142D01*
X36266190Y-172477380D01*
X36218571Y-172667857D01*
X36170952Y-172763095D01*
X36123333Y-172810714D01*
X36028095Y-172858333D01*
X35932857Y-172858333D01*
X35837619Y-172810714D01*
X35790000Y-172763095D01*
X35742381Y-172667857D01*
X35742381Y-172429761D01*
X35790000Y-172286904D01*
X35742381Y-171953571D02*
X36742381Y-171715476D01*
X36028095Y-171524999D01*
X36742381Y-171334523D01*
X35742381Y-171096428D01*
X36742381Y-170191666D02*
X36742381Y-170763095D01*
X36742381Y-170477381D02*
X35742381Y-170477381D01*
X35885238Y-170572619D01*
X35980476Y-170667857D01*
X36028095Y-170763095D01*
M02*
